<?xml version="1.0" encoding="UTF-8" standalone="no"?>
<!DOCTYPE svg PUBLIC "-//W3C//DTD SVG 1.1//EN" "http://www.w3.org/Graphics/SVG/1.1/DTD/svg11.dtd">
<svg width="100%" height="100%" viewBox="0 0 512 512" version="1.1" xmlns="http://www.w3.org/2000/svg" xmlns:xlink="http://www.w3.org/1999/xlink" xml:space="preserve" xmlns:serif="http://www.serif.com/" style="fill-rule:evenodd;clip-rule:evenodd;stroke-linejoin:round;stroke-miterlimit:2;">
    <path d="M432,18L80,18C35.887,18 0,53.887 0,98L0,378C0,422.113 35.887,458 80,458L292,458C303.047,458 312,449.047 312,438C312,426.953 303.047,418 292,418L279.336,418L233.352,358.344L378.598,173.602L469.754,280.945C473.555,285.422 479.129,288 485,288L492,288C503.047,288 512,279.047 512,268L512,98C512,53.887 476.113,18 432,18ZM472,221.793L393.246,129.055C389.359,124.477 383.637,121.871 377.621,122.004C371.621,122.117 365.988,124.922 362.277,129.641L208.16,325.664L155.84,257.789C152.055,252.879 146.203,250 140,250L139.988,250C133.785,250.004 127.93,252.887 124.148,257.809L80.133,315.027C73.398,323.781 75.035,336.34 83.789,343.074C92.547,349.809 105.102,348.172 111.836,339.414L140.016,302.781L228.832,418L80,418C57.945,418 40,400.055 40,378L40,98C40,75.945 57.945,58 80,58L432,58C454.055,58 472,75.945 472,98L472,221.793ZM140,90C106.914,90 80,116.914 80,150C80,183.086 106.914,210 140,210C173.086,210 200,183.086 200,150C200,116.914 173.086,90 140,90ZM140,170C128.973,170 120,161.027 120,150C120,138.973 128.973,130 140,130C151.027,130 160,138.973 160,150C160,161.027 151.027,170 140,170ZM506.145,358.145L455.285,409L506.141,459.855C513.953,467.668 513.953,480.332 506.141,488.141C502.238,492.047 497.117,494 492,494C486.883,494 481.762,492.047 477.855,488.145L427,437.285L376.145,488.141C372.238,492.047 367.117,494 362,494C356.883,494 351.762,492.047 347.855,488.145C340.047,480.332 340.047,467.668 347.855,459.859L398.715,409L347.859,358.145C340.047,350.332 340.047,337.668 347.859,329.859C355.668,322.047 368.332,322.047 376.145,329.859L427,380.715L477.855,329.859C485.668,322.047 498.332,322.047 506.141,329.859C513.953,337.668 513.953,350.332 506.145,358.145Z" style="fill:white;fill-rule:nonzero;"/>
</svg>
