<?xml version="1.0" encoding="UTF-8" standalone="no"?>
<!-- Created with Inkscape (http://www.inkscape.org/) -->

<svg
   width="197.97437mm"
   height="36.771091mm"
   viewBox="0 0 197.97437 36.771091"
   version="1.1"
   id="svg1"
   xmlns="http://www.w3.org/2000/svg"
   xmlns:svg="http://www.w3.org/2000/svg">
  <defs
     id="defs1" />
  <g
     id="layer1"
     transform="translate(-5.2967662,-111.55891)">
    <path
       style="font-size:32.8523px;font-family:DREGS;-inkscape-font-specification:DREGS;fill:#ffffff;stroke-width:0.199077"
       d="m 136.54938,116.1729 h 0.59722 q 1.7917,0 1.7917,9.51834 v 18.47681 h 9.51835 v 1.17578 q -11.31005,0.59724 -11.31005,1.19447 -0.59722,-14.01624 -0.59722,-20.84706 z m 15.08004,5.3564 h 1.19447 v 2.38892 l -0.59724,2.96748 h -1.19445 l -0.59723,-2.96748 v -1.19447 q 0.18663,-1.19445 1.19445,-1.19445 z m -0.59722,8.34256 h 1.79169 l 0.59723,5.95363 v 10.11558 h -1.7917 l -1.19445,-14.29619 q 0.59723,-1.13847 0.59723,-1.77302 z m 16.25585,-6.55087 q 0,0.89585 -7.1481,8.32389 7.74533,7.07345 7.74533,7.74532 l 1.19446,-0.59723 h 2.38891 l -1.19445,1.7917 1.19445,1.79169 -2.98614,0.59722 q 0,-0.59722 -0.59723,-0.59722 -5.35641,5.95363 -8.34255,5.95363 0,-0.82119 6.56952,-7.1481 l -7.74532,-7.14809 h -1.19446 l -1.19445,0.59723 v -1.19446 q 7.8013,-10.71282 11.31003,-10.71282 z m 10.1529,-11.3287 0.59724,1.19445 v 5.3564 l 0.59723,4.18061 h 2.98615 l 2.96748,0.59724 v 0.59723 q -3.69535,1.17579 -5.95363,1.17579 v 22.04151 q 0,1.19447 -1.19447,1.19447 h -0.59723 l -1.79169,-22.63875 -3.56471,-0.59723 q 0,-1.77302 4.16194,-1.77302 v -10.73148 q 0.63456,0 1.79169,-0.59722 z m 22.26548,9.53701 0.57856,9.53701 2.98615,-1.79169 v 0.59724 q -1.23179,2.37025 -2.98615,2.37025 v 13.10172 q 0,1.19447 -1.17579,1.19447 0,-1.19447 -6.55087,-1.77302 l -3.58338,0.57855 h -5.95363 v -0.57855 l 14.89341,-11.92595 v -1.19445 q 0,-2.98615 -0.59722,-8.92113 -1.95966,1.19447 -3.58339,1.19447 h -5.95363 v -1.19447 z m -11.92594,20.84706 v 0.59722 h 10.73148 l -0.59724,-1.19446 v -6.55086 q -9.21973,7.1481 -10.13424,7.1481 z"
       id="text2"
       aria-label="Lista" />
    <g
       id="g1"
       transform="translate(-24.107343,0.2320709)"
       style="fill:#ffffff">
      <path
         style="fill:#ffffff;stroke-width:0.264583"
         d="m 29.404109,147.76027 24.965754,-29.40411 8.506849,27.18493 -18.863013,-4.99315 11.465753,-1.84931 -3.328768,-8.50685 z"
         id="path1" />
      <path
         style="fill:#ffffff;stroke-width:0.264583"
         d="m 85.964916,127.3725 -2.484559,20.00725 5.099886,-2.74609 -0.261533,-15.9535 z"
         id="path3" />
      <path
         style="fill:#ffffff;stroke-width:0.264583"
         d="m 93.681336,120.28459 -0.523057,27.01245 3.897809,-5.57959 1.438421,-12.22727 4.994271,7.14753 10.50232,-5.00048 20.40824,15.76428 -19.23016,-21.15733 -11.68035,2.15524 -4.535794,-6.98064 z"
         id="path4" />
      <path
         id="path6"
         style="fill:#ffffff;stroke-width:0.264583"
         d="m 96.140067,111.32683 -7.157492,11.45215 1.595562,-3.81455 c 0,0 -3.053077,3.56345 -3.666089,4.48961 -0.336128,0.45432 -0.526495,0.92333 -0.572206,1.48812 3.3e-5,0.90271 0.731817,1.63449 1.634526,1.63452 0.517396,-0.002 0.89356,-0.23493 1.310514,-0.66456 0.416954,-0.42963 0.60197,-1.28077 0.902956,-1.92116 1.984074,-4.22138 5.952229,-12.66413 5.952229,-12.66413 z" />
      <path
         style="fill:#ffffff;stroke-width:0.264583"
         d="m 137.68041,136.52066 12.48287,-13.40753 -31.80821,3.14383 23.2089,20.71234 -12.6678,-16.82877 10.91095,-0.5548 z"
         id="path8" />
      <path
         style="fill:#ffffff;stroke-width:0.264583"
         d="m 65.280822,143.78424 -6.010275,-20.80479 16.366437,15.44178 4.253426,-23.30137 4.80822,-2.58904 -6.287672,34.67466 -12.760275,-12.11302 z"
         id="path9" />
    </g>
  </g>
</svg>
