<?xml version="1.0" encoding="UTF-8" standalone="no"?>
<!-- Created with Inkscape (http://www.inkscape.org/) -->

<svg
   width="640"
   height="360"
   viewBox="0 0 169.33333 95.249998"
   version="1.1"
   id="svg1"
   sodipodi:docname="logo.svg"
   inkscape:version="1.4 (1:1.4+202410161351+e7c3feb100)"
   xmlns:inkscape="http://www.inkscape.org/namespaces/inkscape"
   xmlns:sodipodi="http://sodipodi.sourceforge.net/DTD/sodipodi-0.dtd"
   xmlns="http://www.w3.org/2000/svg"
   xmlns:svg="http://www.w3.org/2000/svg">
  <sodipodi:namedview
     id="namedview1"
     pagecolor="#ffffff"
     bordercolor="#000000"
     borderopacity="0.25"
     inkscape:showpageshadow="2"
     inkscape:pageopacity="0.0"
     inkscape:pagecheckerboard="0"
     inkscape:deskcolor="#d1d1d1"
     inkscape:zoom="1.73125"
     inkscape:cx="344.54874"
     inkscape:cy="149.31408"
     inkscape:window-width="1854"
     inkscape:window-height="1011"
     inkscape:window-x="0"
     inkscape:window-y="0"
     inkscape:window-maximized="1"
     inkscape:current-layer="svg1" />
  <defs
     id="defs1" />
  <path
     style="font-size:32.8523px;font-family:DREGS;-inkscape-font-specification:DREGS;fill:#ffffff;stroke-width:0.172396"
     d="m 98.396826,50.318747 h 0.517179 q 1.551565,0 1.551565,8.242668 v 16.000479 h 8.24268 v 1.018209 q -9.794245,0.51719 -9.794245,1.03438 -0.517179,-12.137744 -0.517179,-18.053068 z m 13.058974,4.63852 h 1.03437 v 2.068749 l -0.51719,2.56977 h -1.03436 l -0.51719,-2.56977 v -1.03438 q 0.16162,-1.034369 1.03437,-1.034369 z m -0.51718,7.224459 h 1.55155 l 0.51719,5.155709 v 8.759858 h -1.55156 l -1.03437,-12.380168 q 0.51719,-0.985887 0.51719,-1.535399 z m 14.07718,-5.672899 q 0,0.775785 -6.19009,7.208298 6.70728,6.125435 6.70728,6.707269 l 1.03437,-0.51719 h 2.06875 l -1.03438,1.55157 1.03438,1.55156 -2.58594,0.51718 q 0,-0.51718 -0.51718,-0.51718 -4.63853,5.155709 -7.22446,5.155709 0,-0.711131 5.68906,-6.190089 l -6.70728,-6.190079 h -1.03437 l -1.03437,0.51719 v -1.03438 q 6.75575,-9.277049 9.79423,-9.277049 z m 8.79218,-9.81039 0.51719,1.03437 v 4.638519 l 0.51719,3.62031 h 2.58593 l 2.56978,0.517191 v 0.517189 q -3.2001,1.01821 -5.15571,1.01821 v 19.087437 q 0,1.03438 -1.03438,1.03438 h -0.51719 l -1.55156,-19.604628 -3.08696,-0.517189 q 0,-1.535399 3.60415,-1.535399 v -9.293209 q 0.54951,0 1.55156,-0.517181 z m 19.28138,8.25883 0.50103,8.258828 2.58593,-1.55156 v 0.517191 q -1.06669,2.052589 -2.58593,2.052589 v 11.345788 q 0,1.03438 -1.01821,1.03438 0,-1.03438 -5.67291,-1.535399 l -3.10311,0.501019 h -5.15572 v -0.501019 l 12.89735,-10.327589 v -1.03437 q 0,-2.58594 -0.51717,-7.725489 -1.69702,1.03438 -3.10313,1.03438 h -5.15571 v -1.03438 z m -10.32758,18.053067 v 0.51718 h 9.29321 l -0.5172,-1.03437 v -5.672899 q -7.98407,6.190089 -8.77601,6.190089 z"
     id="text2"
     aria-label="Lista" />
  <g
     id="g2"
     transform="matrix(1.0075392,0,0,1.0075392,-16.416683,-94.277658)"
     style="fill:#ffffff">
    <path
       style="fill:#ffffff;stroke-width:0.264583"
       d="m 29.404109,147.76027 24.965754,-29.40411 8.506849,27.18493 -18.863013,-4.99315 11.465753,-1.84931 -3.328768,-8.50685 z"
       id="path1" />
    <path
       style="fill:#ffffff;stroke-width:0.264583"
       d="m 85.964916,127.3725 -2.484559,20.00725 5.099886,-2.74609 -0.261533,-15.9535 z"
       id="path3" />
    <path
       style="fill:#ffffff;stroke-width:0.264583"
       d="m 93.681336,120.28459 -0.523057,27.01245 3.897809,-5.57959 1.438421,-12.22727 4.994271,7.14753 10.50232,-5.00048 20.40824,15.76428 -19.23016,-21.15733 -11.68035,2.15524 -4.535794,-6.98064 z"
       id="path4"
       sodipodi:nodetypes="ccccccccccc" />
    <path
       id="path6"
       style="fill:#ffffff;stroke-width:0.264583"
       d="m 96.140067,111.32683 -7.157492,11.45215 1.595562,-3.81455 c 0,0 -3.053077,3.56345 -3.666089,4.48961 -0.336128,0.45432 -0.526495,0.92333 -0.572206,1.48812 3.3e-5,0.90271 0.731817,1.63449 1.634526,1.63452 0.517396,-0.002 0.89356,-0.23493 1.310514,-0.66456 0.416954,-0.42963 0.60197,-1.28077 0.902956,-1.92116 1.984074,-4.22138 5.952229,-12.66413 5.952229,-12.66413 z"
       sodipodi:nodetypes="ccczcczsc" />
    <path
       style="fill:#ffffff;stroke-width:0.264583"
       d="m 137.68041,136.52066 12.48287,-13.40753 -31.80821,3.14383 23.2089,20.71234 -12.6678,-16.82877 10.91095,-0.5548 z"
       id="path8"
       sodipodi:nodetypes="ccccccc" />
    <path
       style="fill:#ffffff;stroke-width:0.264583"
       d="m 65.280822,143.78424 -6.010275,-20.80479 16.366437,15.44178 4.253426,-23.30137 4.80822,-2.58904 -6.287672,34.67466 -12.760275,-12.11302 z"
       id="path9" />
  </g>
</svg>
