<?xml version="1.0" encoding="UTF-8" standalone="no"?>
<!DOCTYPE svg PUBLIC "-//W3C//DTD SVG 1.1//EN" "http://www.w3.org/Graphics/SVG/1.1/DTD/svg11.dtd">
<svg width="100%" height="100%" viewBox="0 0 24 24" version="1.1" xmlns="http://www.w3.org/2000/svg" xmlns:xlink="http://www.w3.org/1999/xlink" xml:space="preserve" xmlns:serif="http://www.serif.com/" style="fill-rule:evenodd;clip-rule:evenodd;stroke-linejoin:round;stroke-miterlimit:2;">
    <path d="M4,6C4,7.097 4.903,8 6,8C7.097,8 8,7.097 8,6C8,4.903 7.097,4 6,4C4.903,4.001 4.001,4.903 4,6ZM7,6C7,6.549 6.549,7 6,7C5.451,7 5,6.549 5,6C5,5.451 5.451,5 6,5C6.548,5.001 6.999,5.452 7,6Z" style="fill:white;fill-rule:nonzero;"/>
    <path d="M10.525,16L2,16C1.522,15.995 1.112,15.644 1.035,15.172L4.5,11.707L7.646,14.853C7.74,14.943 7.864,14.994 7.994,14.994C8.268,14.994 8.494,14.768 8.494,14.494C8.494,14.364 8.443,14.24 8.353,14.146L7.457,13.25L12.5,8.207L14.059,9.766C14.152,9.858 14.278,9.909 14.409,9.909C14.683,9.909 14.909,9.683 14.909,9.409C14.909,9.278 14.858,9.152 14.766,9.059L12.853,7.146C12.76,7.053 12.633,7 12.5,7C12.367,7 12.24,7.053 12.146,7.146L6.75,12.543L4.854,10.646C4.76,10.553 4.633,10.5 4.5,10.5C4.367,10.5 4.24,10.553 4.147,10.646L1,13.793L1,4C1.001,3.452 1.452,3.001 2,3L19,3C19.548,3.001 19.999,3.452 20,4L20,8.936C20,9.21 20.226,9.436 20.5,9.436C20.774,9.436 21,9.21 21,8.936L21,4C20.999,2.903 20.097,2.001 19,2L2,2C0.903,2.001 0.001,2.903 0,4L0,15C0.001,16.097 0.903,16.999 2,17L10.525,17C10.8,17 11.025,16.774 11.025,16.5C11.025,16.226 10.8,16 10.525,16Z" style="fill:white;fill-rule:nonzero;"/>
    <path d="M18.354,13.146C18.26,13.053 18.133,13 18,13C17.867,13 17.74,13.053 17.647,13.146L15.647,15.146C15.557,15.24 15.506,15.364 15.506,15.494C15.506,15.768 15.732,15.994 16.006,15.994C16.136,15.994 16.26,15.943 16.354,15.853L17.5,14.707L17.5,18.499C17.5,18.774 17.726,18.999 18,18.999C18.274,18.999 18.5,18.774 18.5,18.499L18.5,14.707L19.646,15.853C19.74,15.943 19.864,15.994 19.994,15.994C20.268,15.994 20.494,15.768 20.494,15.494C20.494,15.364 20.443,15.24 20.353,15.146L18.354,13.146Z" style="fill:white;fill-rule:nonzero;"/>
    <path d="M18,10C14.708,10 12,12.708 12,16C12,19.292 14.708,22 18,22C21.292,22 24,19.292 24,16C23.996,12.71 21.29,10.004 18,10ZM18,21C15.257,21 13,18.743 13,16C13,13.257 15.257,11 18,11C20.743,11 23,13.257 23,16C22.997,18.742 20.742,20.997 18,21Z" style="fill:white;fill-rule:nonzero;"/>
</svg>
