<?xml version="1.0"?>
<svg xmlns="http://www.w3.org/2000/svg" viewBox="0 0 24 24"><title/><path d="M4,6A2,2,0,1,0,6,4,2.002,2.002,0,0,0,4,6ZM7,6A1,1,0,1,1,6,5,1.0013,1.0013,0,0,1,7,6Z"/><path d="M10.52539,16H2a.98789.98789,0,0,1-.96515-.82782L4.5,11.707l3.14648,3.14649a.5.5,0,0,0,.707-.707L7.457,13.25,12.5,8.207l1.55908,1.55908a.49995.49995,0,0,0,.707-.707l-1.91259-1.9126a.49983.49983,0,0,0-.707,0L6.75,12.543,4.85352,10.64648a.49983.49983,0,0,0-.707,0L1,13.793V4A1.0013,1.0013,0,0,1,2,3H19a1.0013,1.0013,0,0,1,1,1V8.936a.5.5,0,0,0,1,0V4a2.002,2.002,0,0,0-2-2H2A2.002,2.002,0,0,0,0,4V15a2.002,2.002,0,0,0,2,2h8.52539a.5.5,0,1,0,0-1Z"/><path d="M18.35352,13.14648a.49983.49983,0,0,0-.707,0l-2,2a.5.5,0,0,0,.707.707L17.5,14.707v3.79248a.5.5,0,0,0,1,0V14.707l1.14648,1.14649a.5.5,0,0,0,.707-.707Z"/><path d="M18,10a6,6,0,1,0,6,6A6.00657,6.00657,0,0,0,18,10Zm0,11a5,5,0,1,1,5-5A5.00588,5.00588,0,0,1,18,21Z"/></svg>
